<?xml version="1.0" encoding="utf-8"?>
<?xml-stylesheet type="text/xsl" href="rss1.xsl"?>
<rss version="2.0" xmlns:atom="http://www.w3.org/2005/Atom" xmlns:content="http://purl.org/rss/1.0/modules/content/" xmlns:dc="http://purl.org/dc/elements/1.1/" xmlns:media="http://search.yahoo.com/mrss/">
<channel>
 <title>Getty</title>
 <link>http://www.gettyimg.com/</link>
 <atom:link href="http://www.gettyimg.com/" rel="self" type="application/rss+xml" />

 
                <item>
                <title><![CDATA[【Music Videos】Inspiral Carpets - Saturn 5 (High Energy Mix) VJ-RoGeRs Edit (Clean)]]></title>
                <link><![CDATA[https://sharemania.us/threads/inspiral-carpets-saturn-5-high-energy-mix-vj-rogers-edit-clean.237469/]]></link>
                <description><![CDATA[<article>
<blockquote class="messageText SelectQuoteContainer ugc baseHtml">
<img src="https://i.ibb.co/85GDLPv/Inspiral-Carpets-Saturn-5-High-Energy-Mix-VJ-Ro-Ge-Rs-Video-Edit-mp4-thumbs-2024-02-10-20-09-10.jpg" class="bbCodeImage LbImage" alt="[​IMG]" data-url="https://i.ibb.co/85GDLPv/Inspiral-Carpets-Saturn-5-High-Energy-Mix-VJ-Ro-Ge-Rs-Video-Edit-mp4-thumbs-2024-02-10-20-09-10.jpg" style=""> <br>
<br>
<div class="ToggleTriggerAnchor bbCodeSpoilerContainer">
<button type="button" class="button bbCodeSpoilerButton ToggleTrigger Tooltip JsOnly" data-target="> .SpoilerTarget"><span>Spoiler: <span class="SpoilerTitle">MediaInfo</span></span></button>
<div class="SpoilerTarget bbCodeSpoilerText">Inspiral Carpets-Saturn 5 (High Energy Mix) VJ-RoGeRs Video Edit.mp4<br>
Format : MPEG-4<br>
Format profile : Base Media / Version 2<br>
Codec ID : mp42 (mp42/mp41)<br>
File size : 287 MiB<br>
Duration : 3 min 53 s<br>
Overall bit rate mode : Variable<br>
Overall bit rate : 10.3 Mb/s<br>
Frame rate : 25.000 FPS<br>
Encoded date : 2020-08-06 19:52:08 UTC<br>
Tagged date : 2020-08-06 19:52:16 UTC<br>
TIM : 00:00:05:12<br>
TSC : 25<br>
TSZ : 1<br>
<br>
Video<br>
ID : 1<br>
Format : AVC<br>
Format/Info : Advanced Video Codec<br>
Format profile : High@L3.1<br>
Format settings : CABAC / 4 Ref Frames<br>
Format settings, CABAC : Yes<br>
Format settings, Reference : 4 frames<br>
Codec ID : avc1<br>
Codec ID/Info : Advanced Video Coding<br>
Duration : 3 min 53 s<br>
Bit rate mode : Variable<br>
Bit rate : 9 967 kb/s<br>
Maximum bit rate : 12.0 Mb/s<br>
Width : 720 pixels<br>
Height : 576 pixels<br>
Display aspect ratio : 4:3<br>
Original display aspect rat : 4:3<br>
Frame rate mode : Constant<br>
Frame rate : 25.000 FPS<br>
Standard : PAL<br>
Color space : YUV<br>
Chroma subsampling : 4:2:0<br>
Bit depth : 8 bits<br>
Scan type : Interlaced<br>
Scan type, store method : Separated fields<br>
Scan order : Top Field First<br>
Bits/(Pixel*Frame) : 0.961<br>
Stream size : 278 MiB (97%)<br>
Language : English<br>
Encoded date : 2020-08-06 19:52:08 UTC<br>
Tagged date : 2020-08-06 19:52:08 UTC<br>
Color range : Limited<br>
Color primaries : BT.601 PAL<br>
Transfer characteristics : BT.470 System B/G<br>
Matrix coefficients : BT.470 System B/G<br>
Codec configuration box : avcC<br>
<br>
Audio<br>
ID : 2<br>
Format : AAC LC<br>
Format/Info : Advanced Audio Codec Low Complexity<br>
Codec ID : mp4a-40-2<br>
Duration : 3 min 53 s<br>
Source duration : 3 min 53 s<br>
Bit rate mode : Variable<br>
Bit rate : 317 kb/s<br>
Maximum bit rate : 410 kb/s<br>
Channel(s) : 2 channels<br>
Channel layout : L R<br>
Sampling rate : 48.0 kHz<br>
Frame rate : 46.875 FPS (1024 SPF)<br>
Compression mode : Lossy<br>
Stream size : 8.85 MiB (3%)<br>
Source stream size : 8.85 MiB (3%)<br>
Language : English<br>
Encoded date : 2020-08-06 19:52:08 UTC<br>
Tagged date : 2020-08-06 19:52:08 UTC</div>
</div><br>
<div class="bbCodeBlock bbCodeVfcHH HiddenContent">
<div class="attribution type">Hidden Content:</div>
<blockquote>You must reply before you can see the hidden data contained here.</blockquote>
</div>
<div class="messageTextEndMarker">&nbsp;</div>
</blockquote>
</article>]]></description>
                <author><![CDATA[DJ-RoGeRs-BS]]></author>
                </item>

                
                <item>
                <title><![CDATA[【Cinema Center】MOVIE - Agent Cody Banks 1 &amp; 2 (2003) (2004) 1080p BluRay x264]]></title>
                <link><![CDATA[https://sharemania.us/threads/agent-cody-banks-1-2-2003-2004-1080p-bluray-x264.237472/]]></link>
                <description><![CDATA[<article>
<blockquote class="messageText SelectQuoteContainer ugc baseHtml">
<div style="text-align: center"><img src="https://cover.box3.net/newsimg/dvdmov/max1220720293-front-cover.jpg" class="bbCodeImage LbImage" alt="[​IMG]" data-url="https://cover.box3.net/newsimg/dvdmov/max1220720293-front-cover.jpg" style=""> <br>
<br>
1. A government agent trains Cody Banks in the ways of covert operations that require younger participants.<br>
2. With all-new gadgets, high-flying action, exciting chases and a wisecracking new handler, Derek (Anthony Anderson), Cody has to retrieve the device before the world's leaders fall under the evil control of a diabolical villain.<br>
<br>
Download:<br>
<br>
<div class="bbCodeBlock bbCodeVfcHH HiddenContent">
<div class="attribution type">Hidden Content:</div>
<blockquote>You must either reply or click 'Like' to see the hidden information contained here.</blockquote>
</div></div>
<div class="messageTextEndMarker">&nbsp;</div>
</blockquote>
</article>]]></description>
                <author><![CDATA[sunnyillion]]></author>
                </item>

                
                <item>
                <title><![CDATA[【Music Videos】Los Prisioneros - Estrechez De Corazón (Remix) - VJ RoGeRs Edit (1080p) (Clean)]]></title>
                <link><![CDATA[https://sharemania.us/threads/los-prisioneros-estrechez-de-coraz%C3%B3n-remix-vj-rogers-edit-1080p-clean.237474/]]></link>
                <description><![CDATA[<article>
<blockquote class="messageText SelectQuoteContainer ugc baseHtml">
<img src="https://i.ibb.co/k1XwWkG/Los-Prisioneros-Estrechez-De-Coraz-n-Remix-Full-HD-VJ-Ro-Ge-Rs-Video-Edit-mp4-thumbs-2024-02-10-20-4.jpg" class="bbCodeImage LbImage" alt="[​IMG]" data-url="https://i.ibb.co/k1XwWkG/Los-Prisioneros-Estrechez-De-Coraz-n-Remix-Full-HD-VJ-Ro-Ge-Rs-Video-Edit-mp4-thumbs-2024-02-10-20-4.jpg" style=""> <br>
<br>
<div class="ToggleTriggerAnchor bbCodeSpoilerContainer">
<button type="button" class="button bbCodeSpoilerButton ToggleTrigger Tooltip JsOnly" data-target="> .SpoilerTarget"><span>Spoiler: <span class="SpoilerTitle">MediaInfo</span></span></button>
<div class="SpoilerTarget bbCodeSpoilerText">Los Prisioneros-Estrechez De Corazón (Remix) (1080p) - VJ RoGeRs Video Edit.mp4<br>
Format : MPEG-4<br>
Format profile : Base Media / Version 2<br>
Codec ID : mp42 (mp42/mp41)<br>
File size : 612 MiB<br>
Duration : 8 min 18 s<br>
Overall bit rate mode : Variable<br>
Overall bit rate : 10.3 Mb/s<br>
Frame rate : 29.970 FPS<br>
Encoded date : 2020-08-08 20:56:49 UTC<br>
Tagged date : 2020-08-08 20:57:05 UTC<br>
TIM : 00:00:00:00<br>
TSC : 30000<br>
TSZ : 1001<br>
<br>
Video<br>
ID : 1<br>
Format : AVC<br>
Format/Info : Advanced Video Codec<br>
Format profile : Main@L4.1<br>
Format settings : CABAC / 4 Ref Frames<br>
Format settings, CABAC : Yes<br>
Format settings, Reference : 4 frames<br>
Codec ID : avc1<br>
Codec ID/Info : Advanced Video Coding<br>
Duration : 8 min 18 s<br>
Bit rate : 9 976 kb/s<br>
Width : 1 920 pixels<br>
Height : 1 080 pixels<br>
Display aspect ratio : 16:9<br>
Frame rate mode : Constant<br>
Frame rate : 29.970 (30000/1001) FPS<br>
Standard : NTSC<br>
Color space : YUV<br>
Chroma subsampling : 4:2:0<br>
Bit depth : 8 bits<br>
Scan type : Progressive<br>
Bits/(Pixel*Frame) : 0.161<br>
Stream size : 592 MiB (97%)<br>
Language : English<br>
Encoded date : 2020-08-08 20:56:49 UTC<br>
Tagged date : 2020-08-08 20:56:49 UTC<br>
Color range : Limited<br>
Color primaries : BT.709<br>
Transfer characteristics : BT.709<br>
Matrix coefficients : BT.709<br>
Codec configuration box : avcC<br>
<br>
Audio<br>
ID : 2<br>
Format : AAC LC<br>
Format/Info : Advanced Audio Codec Low Complexity<br>
Codec ID : mp4a-40-2<br>
Duration : 8 min 18 s<br>
Source duration : 8 min 18 s<br>
Bit rate mode : Variable<br>
Bit rate : 317 kb/s<br>
Maximum bit rate : 416 kb/s<br>
Channel(s) : 2 channels<br>
Channel layout : L R<br>
Sampling rate : 48.0 kHz<br>
Frame rate : 46.875 FPS (1024 SPF)<br>
Compression mode : Lossy<br>
Stream size : 18.8 MiB (3%)<br>
Source stream size : 18.8 MiB (3%)<br>
Language : English<br>
Encoded date : 2020-08-08 20:56:49 UTC<br>
Tagged date : 2020-08-08 20:56:49 UTC</div>
</div><br>
<div class="bbCodeBlock bbCodeVfcHH HiddenContent">
<div class="attribution type">Hidden Content:</div>
<blockquote>You must reply before you can see the hidden data contained here.</blockquote>
</div>
<div class="messageTextEndMarker">&nbsp;</div>
</blockquote>
</article>]]></description>
                <author><![CDATA[DJ-RoGeRs-BS]]></author>
                </item>

                
                <item>
                <title><![CDATA[【Requests】[REQ AUD] - PEGGY GOU - NYE 2024 (DJ Mix) (from Apple Music)]]></title>
                <link><![CDATA[https://sharemania.us/threads/peggy-gou-nye-2024-dj-mix-from-apple-music.237475/]]></link>
                <description><![CDATA[<article>
<blockquote class="messageText SelectQuoteContainer ugc baseHtml">
<span style="font-size: 15px">There's already an excellent upload for one of the songs, thanks to </span><b><span style="font-size: 15px"><span style="font-size: 15px"><a href="https://sharemania.us/members/letlotlop.149753/" class="internalLink">letlotlop</a></span></span></b><span style="font-size: 15px">:</span><br>
<br>
<a href="https://sharemania.us/threads/beyonc%C3%A9-thique-peggy-gou-remix-mixed-e-ac3-joc-16bits-48khz-5-1-768kbits.235781/#post-5228412" class="internalLink"><b><span style="font-size: 18px">Beyoncé - THIQUE (Peggy Gou Remix) [Mixed] [E-AC3-JOC | 16bits/48kHz | 5.1 | 768kbits]</span></b></a><br>
<br>
<span style="font-size: 15px">I was hoping we could get the rest of the album. <br>
<br>
Thanks in advance!</span>
<div class="messageTextEndMarker">&nbsp;</div>
</blockquote>
</article>]]></description>
                <author><![CDATA[onomatopeya]]></author>
                </item>

                
                <item>
                <title><![CDATA[【Requests】[REQ AUD] - Taylor Swift - Clean Versions of Her Albums [FLAC]]]></title>
                <link><![CDATA[https://sharemania.us/threads/taylor-swift-clean-versions-of-her-albums-flac.237473/]]></link>
                <description><![CDATA[<article>
<blockquote class="messageText SelectQuoteContainer ugc baseHtml">
Hello,<br>
<br>
Many of Taylor Swift's albums come with a clean edit. They're not insignificant either, as many of them contain completely new lyrics instead of just bleeps and silence. Does anyone have a FLAC (16-bit, 44.1KHz) version of these?<br>
<br>
<ul>
<li>Folklore</li>
<li>Evermore</li>
<li>Red (Taylor's Version)</li>
<li>Midnights</li>
</ul>Thank you! They don't seem to be here at all, unfortunately.
<div class="messageTextEndMarker">&nbsp;</div>
</blockquote>
</article>]]></description>
                <author><![CDATA[bautistak]]></author>
                </item>

                
                <item>
                <title><![CDATA[【Requests】[REQ AUD] - Donna Summer "Singles...Driven By The Music"]]></title>
                <link><![CDATA[https://sharemania.us/threads/donna-summer-singles-driven-by-the-music.237476/]]></link>
                <description><![CDATA[<article>
<blockquote class="messageText SelectQuoteContainer ugc baseHtml">
hi!<br>
please does anyone have this set?<br>
<br>
<a href="https://www.discogs.com/master/902581-Donna-Summer-Singles-Driven-By-The-Music" target="_blank" class="externalLink" rel="nofollow">https://www.discogs.com/master/902581-Donna-Summer-Singles-Driven-By-The-Music</a><br>
<br>
thank you!
<div class="messageTextEndMarker">&nbsp;</div>
</blockquote>
</article>]]></description>
                <author><![CDATA[michaeldila]]></author>
                </item>

                
                <item>
                <title><![CDATA[【Cinema Center】MOVIE - Teen Beach Movie (2013) 1080p WEB-DL H264 - NOMA]]></title>
                <link><![CDATA[https://sharemania.us/threads/teen-beach-movie-2013-1080p-web-dl-h264-noma.237470/]]></link>
                <description><![CDATA[<article>
<blockquote class="messageText SelectQuoteContainer ugc baseHtml">
<div style="text-align: center"><img src="https://prod-ripcut-delivery.disney-plus.net/v1/variant/disney/6F340297277BE9BD3FC4491BA3A768ACE3F31884E54DC58D332D8AE9F98EFA5E/scale?width=1200&amp;amp;aspectRatio=1.78&amp;amp;format=webp" class="bbCodeImage LbImage" alt="[​IMG]" data-url="https://prod-ripcut-delivery.disney-plus.net/v1/variant/disney/6F340297277BE9BD3FC4491BA3A768ACE3F31884E54DC58D332D8AE9F98EFA5E/scale?width=1200&amp;amp;aspectRatio=1.78&amp;amp;format=webp" style=""> <br>
<br>
Two surfing lovers, whose doomed relationship is nearing to a close, find themselves swept into a dimension-traversing wave that sends them into a beach movie musical in the 60's.<br>
<br>
Download:<br>
<br>
<div class="bbCodeBlock bbCodeVfcHH HiddenContent">
<div class="attribution type">Hidden Content:</div>
<blockquote>You must either reply or click 'Like' to see the hidden information contained here.</blockquote>
</div></div>
<div class="messageTextEndMarker">&nbsp;</div>
</blockquote>
</article>]]></description>
                <author><![CDATA[sunnyillion]]></author>
                </item>

                
                <item>
                <title><![CDATA[【Requests】[REQ AUD] - Pet Shop Boys - Further Listening Collection]]></title>
                <link><![CDATA[https://sharemania.us/threads/pet-shop-boys-further-listening-collection.237471/]]></link>
                <description><![CDATA[<article>
<blockquote class="messageText SelectQuoteContainer ugc baseHtml">
Good day everyone!<br>
<br>
I haven't seen any masterposts of the legendary Pet Shop Boys so far and, since their new upcoming album will be released in a couple of months, I think it would be excellent to share their discography!<br>
<br>
Today, I'm just asking for their "Further Listening" collection, from Qobuz:<br>
<br>
<a href="https://www.qobuz.com/ie-en/album/please-further-listening-1984-1986-pet-shop-boys/0190295758547" target="_blank" class="externalLink" rel="nofollow">https://www.qobuz.com/ie-en/album/please-further-listening-1984-1986-pet-shop-boys/0190295758547</a><br>
<br>
<a href="https://www.qobuz.com/ie-en/album/actually-further-listening-1987-1988-pet-shop-boys/0190295758530" target="_blank" class="externalLink" rel="nofollow">https://www.qobuz.com/ie-en/album/actually-further-listening-1987-1988-pet-shop-boys/0190295758530</a><br>
<br>
<a href="https://www.qobuz.com/ie-en/album/introspective-further-listening-1988-1989-pet-shop-boys/0190295758462" target="_blank" class="externalLink" rel="nofollow">https://www.qobuz.com/ie-en/album/i...stening-1988-1989-pet-shop-boys/0190295758462</a><br>
<br>
<a href="https://www.qobuz.com/ie-en/album/behaviour-further-listening-1990-1991-pet-shop-boys/tw0068z72iipc" target="_blank" class="externalLink" rel="nofollow">https://www.qobuz.com/ie-en/album/behaviour-further-listening-1990-1991-pet-shop-boys/tw0068z72iipc</a><br>
<br>
<a href="https://www.qobuz.com/ie-en/album/very-further-listening-1992-1994-pet-shop-boys/se9l03lqyjnsc" target="_blank" class="externalLink" rel="nofollow">https://www.qobuz.com/ie-en/album/very-further-listening-1992-1994-pet-shop-boys/se9l03lqyjnsc</a><br>
<br>
<a href="https://www.qobuz.com/ie-en/album/bilingual-further-listening-1995-1997-pet-shop-boys/py9g4qgyi61xc" target="_blank" class="externalLink" rel="nofollow">https://www.qobuz.com/ie-en/album/bilingual-further-listening-1995-1997-pet-shop-boys/py9g4qgyi61xc</a><br>
<br>
<a href="https://www.qobuz.com/ie-en/album/nightlife-further-listening-1996-2000-pet-shop-boys/0190295921101" target="_blank" class="externalLink" rel="nofollow">https://www.qobuz.com/ie-en/album/nightlife-further-listening-1996-2000-pet-shop-boys/0190295921101</a><br>
<br>
<a href="https://www.qobuz.com/ie-en/album/release-further-listening-2001-2004-pet-shop-boys/0190295921095" target="_blank" class="externalLink" rel="nofollow">https://www.qobuz.com/ie-en/album/release-further-listening-2001-2004-pet-shop-boys/0190295921095</a><br>
<br>
<a href="https://www.qobuz.com/ie-en/album/fundamental-further-listening-2005-2007-pet-shop-boys/0190295921118" target="_blank" class="externalLink" rel="nofollow">https://www.qobuz.com/ie-en/album/f...stening-2005-2007-pet-shop-boys/0190295921118</a><br>
<br>
<a href="https://www.qobuz.com/ie-en/album/yes-further-listening-2008-2010-pet-shop-boys/0190295852795" target="_blank" class="externalLink" rel="nofollow">https://www.qobuz.com/ie-en/album/yes-further-listening-2008-2010-pet-shop-boys/0190295852795</a><br>
<br>
<a href="https://www.qobuz.com/ie-en/album/elysium-further-listening-2011-2012-pet-shop-boys/0190295852764" target="_blank" class="externalLink" rel="nofollow">https://www.qobuz.com/ie-en/album/elysium-further-listening-2011-2012-pet-shop-boys/0190295852764</a><br>
<br>
If anyone has any of these albums, please share them with the community! Thanks.
<div class="messageTextEndMarker">&nbsp;</div>
</blockquote>
</article>]]></description>
                <author><![CDATA[ladrianrm]]></author>
                </item>

                </channel></rss>